<?xml version="1.0" standalone="no"?>
<!DOCTYPE svg PUBLIC "-//W3C//DTD SVG 20010904//EN"
 "http://www.w3.org/TR/2001/REC-SVG-20010904/DTD/svg10.dtd">
<svg version="1.0" xmlns="http://www.w3.org/2000/svg"
 width="183.000000pt" height="180.000000pt" viewBox="0 0 183.000000 180.000000"
 preserveAspectRatio="xMidYMid meet">

<g transform="translate(0.000000,180.000000) scale(0.100000,-0.100000)"
fill="#000000" stroke="none">
<path d="M830 1730 c-8 -5 -25 -10 -37 -10 -56 0 -213 -69 -293 -128 -57 -42
-139 -123 -175 -172 -40 -54 -105 -179 -105 -201 0 -9 -3 -19 -7 -23 -26 -25
-56 -307 -34 -320 4 -3 11 -34 14 -68 16 -162 147 -373 302 -483 257 -183 595
-200 870 -44 65 37 158 117 213 183 49 59 128 196 136 238 2 7 6 20 9 28 15
37 36 200 32 250 -6 64 -23 156 -36 185 -4 11 -13 40 -19 63 -32 125 -150 279
-286 372 -87 60 -229 121 -287 122 -15 1 -30 5 -33 10 -7 11 -246 10 -264 -2z
m66 -137 c23 -24 24 -32 18 -87 -9 -82 -9 -80 -16 -91 -3 -5 -9 -44 -13 -85
-4 -41 -11 -79 -15 -85 -4 -5 -11 -44 -15 -85 -3 -41 -10 -79 -15 -85 -4 -5
-11 -39 -14 -75 l-8 -65 44 50 c24 27 52 60 63 74 42 54 200 213 231 231 37
23 109 26 130 6 44 -45 -1 -108 -236 -325 -30 -28 -52 -52 -50 -54 53 -41 305
-171 357 -183 15 -4 33 -10 38 -13 6 -3 48 -10 95 -16 82 -10 85 -11 88 -38 4
-31 -14 -53 -52 -63 -14 -3 -29 -10 -32 -15 -7 -12 -191 -11 -199 1 -3 6 -15
10 -27 10 -33 0 -192 75 -273 130 -22 14 -56 36 -76 48 l-35 21 -25 -23 c-45
-44 -61 -68 -66 -105 -5 -39 -24 -85 -47 -114 -11 -14 -25 -17 -68 -15 l-53 3
3 120 c2 66 7 122 11 125 4 3 13 50 19 105 6 55 13 114 16 130 3 17 8 62 12
100 3 39 10 81 14 95 5 14 14 94 20 178 11 164 20 192 70 211 46 17 80 12 106
-16z"/>
</g>
</svg>
